<?xml version="1.0" encoding="utf-8"?>
<!-- Generator: Adobe Illustrator 25.4.1, SVG Export Plug-In . SVG Version: 6.00 Build 0)  -->
<svg version="1.1" id="Layer_1" xmlns="http://www.w3.org/2000/svg" xmlns:xlink="http://www.w3.org/1999/xlink" x="0px" y="0px"
	 viewBox="0 0 800 800" style="enable-background:new 0 0 800 800;" xml:space="preserve">
<style type="text/css">
	.st0{fill:#440A67;}
</style>
<g>
	<path class="st0" d="M630.8,216.2H169.2c-9.3,0-16.9-7.5-16.9-16.9l0,0c0-9.3,7.5-16.9,16.9-16.9h461.6c9.3,0,16.9,7.5,16.9,16.9
		l0,0C647.7,208.6,640.1,216.2,630.8,216.2z"/>
	<path class="st0" d="M630.8,416.9H169.2c-9.3,0-16.9-7.5-16.9-16.9l0,0c0-9.3,7.5-16.9,16.9-16.9h461.6c9.3,0,16.9,7.5,16.9,16.9
		l0,0C647.7,409.3,640.1,416.9,630.8,416.9z"/>
	<path class="st0" d="M630.8,617.5H169.2c-9.3,0-16.9-7.5-16.9-16.9l0,0c0-9.3,7.5-16.9,16.9-16.9h461.6c9.3,0,16.9,7.5,16.9,16.9
		l0,0C647.7,610,640.1,617.5,630.8,617.5z"/>
</g>
</svg>
