<?xml version="1.0" encoding="utf-8"?>
<!-- Generator: Adobe Illustrator 25.4.1, SVG Export Plug-In . SVG Version: 6.00 Build 0)  -->
<svg version="1.1" id="Layer_1" xmlns="http://www.w3.org/2000/svg" xmlns:xlink="http://www.w3.org/1999/xlink" x="0px" y="0px"
	 viewBox="0 0 800 800" style="enable-background:new 0 0 800 800;" xml:space="preserve">
<style type="text/css">
	.st0{fill:url(#SVGID_1_);}
	.st1{fill:url(#SVGID_00000052088288221843754580000003992045596525922230_);}
	.st2{fill:url(#SVGID_00000181058576367509784680000004565602240641898392_);}
	.st3{fill:url(#SVGID_00000034063763226988860510000014271525248322013849_);stroke:#FFFFFF;stroke-width:7;stroke-miterlimit:10;}
	.st4{fill:url(#SVGID_00000003070350199025781830000012209737531222766747_);}
	.st5{fill:url(#SVGID_00000158028052836017698010000009753909391208013496_);}
	.st6{fill:#233B54;}
	.st7{fill:#FCFCFC;}
	.st8{fill:#2B65AA;}
	.st9{fill:#245689;}
</style>
<g>
	<g>
		<linearGradient id="SVGID_1_" gradientUnits="userSpaceOnUse" x1="400" y1="585.4895" x2="400" y2="763.5149">
			<stop  offset="0" style="stop-color:#AECCCA"/>
			<stop  offset="1" style="stop-color:#8E93A8"/>
		</linearGradient>
		<path class="st0" d="M743.35,742.51H56.65v-32.6c0-27.01,21.89-48.9,48.9-48.9h588.89c27.01,0,48.9,21.89,48.9,48.9V742.51z"/>
		
			<linearGradient id="SVGID_00000155105687016514394070000010581278441130270909_" gradientUnits="userSpaceOnUse" x1="400" y1="585.4895" x2="400" y2="763.5149">
			<stop  offset="0" style="stop-color:#AECCCA"/>
			<stop  offset="1" style="stop-color:#8E93A8"/>
		</linearGradient>
		<path style="fill:url(#SVGID_00000155105687016514394070000010581278441130270909_);" d="M692.61,672.04H107.39v-8.54
			c0-27.01,21.89-48.9,48.9-48.9h487.41c27.01,0,48.9,21.89,48.9,48.9V672.04z"/>
	</g>
	<g>
		
			<linearGradient id="SVGID_00000100383588689525947520000010362414936998651821_" gradientUnits="userSpaceOnUse" x1="399.995" y1="230.8583" x2="399.995" y2="718.6597" gradientTransform="matrix(1 0 0 -1 0 802)">
			<stop  offset="0" style="stop-color:#5591C9"/>
			<stop  offset="1" style="stop-color:#245689"/>
		</linearGradient>
		<path style="fill:url(#SVGID_00000100383588689525947520000010362414936998651821_);" d="M587.8,505.04l-140.88,62.5
			c-28.95,12.84-64.9,12.84-93.85,0l-140.88-62.5c-23.64-10.49-38.15-29.6-38.15-50.24V102.11h451.91v352.68
			C625.96,475.44,611.45,494.55,587.8,505.04z"/>
		
			<linearGradient id="SVGID_00000019657620677627934070000018071797705005657475_" gradientUnits="userSpaceOnUse" x1="400" y1="272.2983" x2="400" y2="672.7792" gradientTransform="matrix(1 0 0 -1 0 802)">
			<stop  offset="0" style="stop-color:#5591C9"/>
			<stop  offset="1" style="stop-color:#245689"/>
		</linearGradient>
		
			<path style="fill:url(#SVGID_00000019657620677627934070000018071797705005657475_);stroke:#FFFFFF;stroke-width:7;stroke-miterlimit:10;" d="
			M400,534.65c-10.6,0-20.86-2.07-29.68-5.98l-140.88-62.5c-9.82-4.36-12.88-9.86-12.88-11.38V144.63h366.88v310.16
			c0,1.51-3.05,7.02-12.88,11.38l-140.88,62.5C420.86,532.58,410.6,534.65,400,534.65z"/>
		
			<linearGradient id="SVGID_00000141413929037954658370000017799913815071264423_" gradientUnits="userSpaceOnUse" x1="400" y1="581.0188" x2="400" y2="735.5787" gradientTransform="matrix(1 0 0 -1 0 802)">
			<stop  offset="0" style="stop-color:#AECCCA"/>
			<stop  offset="1" style="stop-color:#8E93A8"/>
		</linearGradient>
		<path style="fill:url(#SVGID_00000141413929037954658370000017799913815071264423_);" d="M614.4,219.53l-139.5-45.79
			c-48.66-15.97-101.15-15.97-149.81,0L185.6,219.53c-18.53,6.08-37.6-7.72-37.6-27.23V97.06c0-16.92,13.72-30.64,30.64-30.64H400
			h221.36c16.92,0,30.64,13.72,30.64,30.64v95.24C652,211.81,632.94,225.61,614.4,219.53z"/>
		<g>
			
				<linearGradient id="SVGID_00000124155091218362789550000002624246913397528960_" gradientUnits="userSpaceOnUse" x1="400" y1="629.3687" x2="400" y2="744.5087" gradientTransform="matrix(1 0 0 -1 0 802)">
				<stop  offset="0" style="stop-color:#EBF5FF"/>
				<stop  offset="1" style="stop-color:#A0A0A0"/>
			</linearGradient>
			<circle style="fill:url(#SVGID_00000124155091218362789550000002624246913397528960_);" cx="400" cy="115.06" r="57.57"/>
			<g>
				<path class="st6" d="M440.1,115.06c0-22.11-17.99-40.1-40.1-40.1l0,0v40.1L440.1,115.06L440.1,115.06z"/>
				<path class="st7" d="M400,74.97c-22.11,0-40.1,17.99-40.1,40.1H400V74.97z"/>
				<path class="st8" d="M400,115.06v40.1l0,0c22.11,0,40.1-17.99,40.1-40.1l0,0L400,115.06L400,115.06z"/>
				<path class="st9" d="M359.9,115.06L359.9,115.06c0,22.11,17.99,40.1,40.1,40.1v-40.1L359.9,115.06L359.9,115.06z"/>
			</g>
		</g>
	</g>
</g>
</svg>
