<?xml version="1.0" encoding="utf-8"?>
<!-- Generator: Adobe Illustrator 25.4.1, SVG Export Plug-In . SVG Version: 6.00 Build 0)  -->
<svg version="1.1" id="Layer_1" xmlns="http://www.w3.org/2000/svg" xmlns:xlink="http://www.w3.org/1999/xlink" x="0px" y="0px"
	 viewBox="0 0 800 800" style="enable-background:new 0 0 800 800;" xml:space="preserve">
<style type="text/css">
	.st0{fill:url(#SVGID_1_);}
	.st1{fill:url(#SVGID_00000038388697562107687170000008430251133801645475_);}
	.st2{fill:url(#SVGID_00000017491099396079093320000000791309645338793123_);}
	.st3{fill:url(#SVGID_00000070819238044629745790000008157603011430321549_);stroke:#FFFFFF;stroke-width:7;stroke-miterlimit:10;}
	.st4{fill:url(#SVGID_00000182527594065493472640000007957964023414109597_);}
	.st5{fill:url(#SVGID_00000055690307176948647660000002472145157139022220_);}
	.st6{fill:url(#SVGID_00000107550076489731092170000001659834178218674338_);}
	.st7{fill:url(#SVGID_00000084494425462397622410000000113278846043776650_);}
	.st8{fill:#6D3A3A;}
	.st9{fill:#FFFAFA;}
	.st10{fill:#FF4343;}
	.st11{fill:#D83F3F;}
</style>
<g>
	<linearGradient id="SVGID_1_" gradientUnits="userSpaceOnUse" x1="397.2971" y1="585.4895" x2="397.2971" y2="763.5149">
		<stop  offset="0" style="stop-color:#FFE66A"/>
		<stop  offset="1" style="stop-color:#FF9355"/>
	</linearGradient>
	<path class="st0" d="M740.65,742.51H53.95v-32.6c0-27.01,21.89-48.9,48.9-48.9h588.89c27.01,0,48.9,21.89,48.9,48.9V742.51z"/>
	
		<linearGradient id="SVGID_00000019644129029410302400000016139164261478523548_" gradientUnits="userSpaceOnUse" x1="397.2971" y1="585.4895" x2="397.2971" y2="763.5149">
		<stop  offset="0" style="stop-color:#FFE66A"/>
		<stop  offset="1" style="stop-color:#FF9355"/>
	</linearGradient>
	<path style="fill:url(#SVGID_00000019644129029410302400000016139164261478523548_);" d="M689.91,672.04H104.69v-8.54
		c0-27.01,21.89-48.9,48.9-48.9H641c27.01,0,48.9,21.89,48.9,48.9V672.04z"/>
</g>
<g>
	
		<linearGradient id="SVGID_00000121975524266720891380000014481813289963806373_" gradientUnits="userSpaceOnUse" x1="397.3021" y1="234.7873" x2="397.3021" y2="722.5888" gradientTransform="matrix(1 0 0 -1 0 802)">
		<stop  offset="0" style="stop-color:#FF993B"/>
		<stop  offset="1" style="stop-color:#FF1515"/>
	</linearGradient>
	<path style="fill:url(#SVGID_00000121975524266720891380000014481813289963806373_);" d="M585.1,505.51l-140.88,62.5
		c-28.95,12.84-64.9,12.84-93.85,0l-140.87-62.5c-23.64-10.49-38.15-29.6-38.15-50.24V102.59h451.91v352.68
		C623.26,475.92,608.75,495.02,585.1,505.51z"/>
	
		<linearGradient id="SVGID_00000050654207860251622990000009278664209620012990_" gradientUnits="userSpaceOnUse" x1="397.2971" y1="275.438" x2="397.2971" y2="675.9189" gradientTransform="matrix(1 0 0 -1 0 802)">
		<stop  offset="0" style="stop-color:#FF993B"/>
		<stop  offset="1" style="stop-color:#FF1515"/>
	</linearGradient>
	
		<path style="fill:url(#SVGID_00000050654207860251622990000009278664209620012990_);stroke:#FFFFFF;stroke-width:7;stroke-miterlimit:10;" d="
		M397.3,535.13c-10.6,0-20.86-2.07-29.68-5.98l-140.88-62.5c-9.82-4.36-12.88-9.86-12.88-11.38V145.11h366.88v310.16
		c0,1.51-3.05,7.02-12.88,11.38l-140.88,62.5C418.16,533.06,407.9,535.13,397.3,535.13z"/>
	<g>
		
			<linearGradient id="SVGID_00000037679249370473462370000005004729319081265056_" gradientUnits="userSpaceOnUse" x1="397.2971" y1="580.5354" x2="397.2971" y2="735.0953" gradientTransform="matrix(1 0 0 -1 0 802)">
			<stop  offset="0" style="stop-color:#FFE66A"/>
			<stop  offset="1" style="stop-color:#FF9355"/>
		</linearGradient>
		<path style="fill:url(#SVGID_00000037679249370473462370000005004729319081265056_);" d="M611.7,220.01l-139.5-45.8
			c-48.66-15.97-101.15-15.97-149.81,0l-139.49,45.8c-18.53,6.08-37.6-7.72-37.6-27.23V97.54c0-16.92,13.72-30.64,30.64-30.64
			h442.72c16.92,0,30.64,13.72,30.64,30.64v95.24C649.3,212.28,630.24,226.09,611.7,220.01z"/>
		<g>
			<g>
				
					<linearGradient id="SVGID_00000155124390745788850780000007521624476895615159_" gradientUnits="userSpaceOnUse" x1="334.8478" y1="606.2801" x2="334.8478" y2="826.5306" gradientTransform="matrix(1 0 0 -1 0 802)">
					<stop  offset="0" style="stop-color:#FF8415"/>
					<stop  offset="1" style="stop-color:#FF5615"/>
				</linearGradient>
				<path style="fill:url(#SVGID_00000155124390745788850780000007521624476895615159_);" d="M350.36,65.97
					c-33.4-19.28-67.42-22.89-75.98-8.06c-8.56,14.83,11.57,42.48,44.97,61.77c2.68,1.55,5.36,2.98,8.03,4.32
					c-26.38,16.27-41.89,38.43-34.9,50.54c7.29,12.62,36.23,9.55,64.65-6.86c23.18-13.38,38.84-31.5,39.88-44.58
					C399.88,107.64,380.54,83.39,350.36,65.97z"/>
				
					<linearGradient id="SVGID_00000011008439336323460850000013311038171708631174_" gradientUnits="userSpaceOnUse" x1="-3636.0623" y1="609.344" x2="-3636.0623" y2="828.9717" gradientTransform="matrix(-1 0 0 -1 -3176.3157 802)">
					<stop  offset="0" style="stop-color:#FF9F3F"/>
					<stop  offset="1" style="stop-color:#FF5615"/>
				</linearGradient>
				<path style="fill:url(#SVGID_00000011008439336323460850000013311038171708631174_);" d="M444.24,65.97
					c33.4-19.28,67.42-22.89,75.98-8.06c8.56,14.83-11.57,42.48-44.97,61.77c-2.68,1.55-5.36,2.98-8.03,4.32
					c26.38,16.27,41.89,38.43,34.9,50.54c-7.29,12.62-36.23,9.55-64.65-6.86c-23.18-13.38-38.84-31.5-39.88-44.58
					C394.72,107.64,414.06,83.39,444.24,65.97z"/>
			</g>
			<g>
				
					<linearGradient id="SVGID_00000158723501838555969480000001069682637519823762_" gradientUnits="userSpaceOnUse" x1="397.2921" y1="631.3055" x2="397.2921" y2="764.8405" gradientTransform="matrix(1 0 0 -1 0 802)">
					<stop  offset="0" style="stop-color:#FCFFBF"/>
					<stop  offset="1" style="stop-color:#FFC53F"/>
				</linearGradient>
				<path style="fill:url(#SVGID_00000158723501838555969480000001069682637519823762_);" d="M379.06,174.76l-40.98-40.98
					c-10.07-10.07-10.07-26.4,0-36.47l40.98-40.98c10.07-10.07,26.4-10.07,36.47,0l40.98,40.98c10.07,10.07,10.07,26.4,0,36.47
					l-40.98,40.98C405.46,184.83,389.14,184.83,379.06,174.76z"/>
				<g>
					<path class="st8" d="M444.23,115.54L444.23,115.54c0-1.12-0.3-2.77-1.74-4.21l-40.98-40.98c-1.44-1.44-3.08-1.74-4.21-1.74
						v46.93L444.23,115.54L444.23,115.54z"/>
					<path class="st9" d="M397.3,68.62L397.3,68.62c-1.12,0-2.77,0.3-4.21,1.74l-40.98,40.98c-1.44,1.44-1.74,3.08-1.74,4.2l0,0
						h46.93V68.62z"/>
					<path class="st10" d="M397.3,115.54v46.93c1.12,0,2.77-0.3,4.21-1.74l40.98-40.98c1.44-1.44,1.74-3.08,1.74-4.2H397.3V115.54z"
						/>
					<path class="st11" d="M350.37,115.54c0,1.12,0.3,2.77,1.74,4.21l40.98,40.98c1.44,1.44,3.08,1.74,4.21,1.74l0,0v-46.93
						L350.37,115.54L350.37,115.54z"/>
				</g>
			</g>
		</g>
	</g>
</g>
</svg>
