<?xml version="1.0" encoding="utf-8"?>
<!-- Generator: Adobe Illustrator 25.4.1, SVG Export Plug-In . SVG Version: 6.00 Build 0)  -->
<svg version="1.1" id="Layer_1" xmlns="http://www.w3.org/2000/svg" xmlns:xlink="http://www.w3.org/1999/xlink" x="0px" y="0px"
	 viewBox="0 0 800 800" style="enable-background:new 0 0 800 800;" xml:space="preserve">
<style type="text/css">
	.st0{fill:url(#SVGID_1_);}
	.st1{fill:url(#SVGID_00000031199508621819187920000011287519842474297265_);}
	.st2{fill:url(#SVGID_00000176750235835516957750000002801562505412897719_);}
	.st3{fill:url(#SVGID_00000064338420183811112070000017869208273221955727_);stroke:#FFFFFF;stroke-width:7;stroke-miterlimit:10;}
	.st4{fill:url(#SVGID_00000173123289973342901760000000785239642116205746_);}
	.st5{fill:url(#SVGID_00000017487341489093685620000011486025546569861532_);}
	.st6{fill:url(#SVGID_00000134251045079073363570000000328036902552793223_);}
	.st7{fill:url(#SVGID_00000057145292251656344580000000011443170044826038_);}
	.st8{fill:#FFFFFF;}
	.st9{fill:#5C3F93;}
	.st10{fill:#8557CE;}
	.st11{fill:#A982F4;}
	.st12{fill:#63449E;}
	.st13{fill:#976BED;}
	.st14{fill:#7658BF;}
</style>
<g>
	<g>
		<linearGradient id="SVGID_1_" gradientUnits="userSpaceOnUse" x1="400" y1="592.3447" x2="400" y2="770.3701">
			<stop  offset="0" style="stop-color:#B3FFF7"/>
			<stop  offset="0.0844" style="stop-color:#A8F0F8"/>
			<stop  offset="0.5261" style="stop-color:#70A6FC"/>
			<stop  offset="0.8423" style="stop-color:#4C77FE"/>
			<stop  offset="1" style="stop-color:#3F65FF"/>
		</linearGradient>
		<path class="st0" d="M743.35,749.36H56.65v-32.6c0-27.01,21.89-48.9,48.9-48.9h588.89c27.01,0,48.9,21.89,48.9,48.9V749.36z"/>
		
			<linearGradient id="SVGID_00000136409520070150005220000003975586220619809458_" gradientUnits="userSpaceOnUse" x1="400" y1="592.3447" x2="400" y2="770.3701">
			<stop  offset="0" style="stop-color:#B3FFF7"/>
			<stop  offset="0.0844" style="stop-color:#A8F0F8"/>
			<stop  offset="0.5261" style="stop-color:#70A6FC"/>
			<stop  offset="0.8423" style="stop-color:#4C77FE"/>
			<stop  offset="1" style="stop-color:#3F65FF"/>
		</linearGradient>
		<path style="fill:url(#SVGID_00000136409520070150005220000003975586220619809458_);" d="M692.61,678.9H107.39v-8.54
			c0-27.01,21.89-48.9,48.9-48.9h487.41c27.01,0,48.9,21.89,48.9,48.9V678.9z"/>
	</g>
	<g>
		
			<linearGradient id="SVGID_00000015318813278088436950000008026485613893716410_" gradientUnits="userSpaceOnUse" x1="402.7078" y1="211.9088" x2="402.7078" y2="699.7101" gradientTransform="matrix(1 0 0 -1 0 802)">
			<stop  offset="0" style="stop-color:#3FC1FF"/>
			<stop  offset="1" style="stop-color:#D42AFF"/>
		</linearGradient>
		<path style="fill:url(#SVGID_00000015318813278088436950000008026485613893716410_);" d="M590.51,523.99l-140.88,62.5
			c-28.95,12.84-64.9,12.84-93.85,0l-140.88-62.5c-23.64-10.49-38.15-29.6-38.15-50.24V121.06h451.91v352.68
			C628.67,494.39,614.16,513.5,590.51,523.99z"/>
		
			<linearGradient id="SVGID_00000065059907029549093140000017870334066266496910_" gradientUnits="userSpaceOnUse" x1="402.7128" y1="253.3488" x2="402.7128" y2="653.8297" gradientTransform="matrix(1 0 0 -1 0 802)">
			<stop  offset="0" style="stop-color:#3FC1FF"/>
			<stop  offset="1" style="stop-color:#D42AFF"/>
		</linearGradient>
		
			<path style="fill:url(#SVGID_00000065059907029549093140000017870334066266496910_);stroke:#FFFFFF;stroke-width:7;stroke-miterlimit:10;" d="
			M402.71,553.6c-10.6,0-20.86-2.07-29.68-5.98l-140.88-62.5c-9.82-4.36-12.88-9.86-12.88-11.38V163.58h366.88v310.16
			c0,1.51-3.05,7.02-12.88,11.38l-140.88,62.5C423.57,551.53,413.31,553.6,402.71,553.6z"/>
		<g>
			
				<linearGradient id="SVGID_00000044141128133293808010000013199625548724960432_" gradientUnits="userSpaceOnUse" x1="402.7029" y1="651.4319" x2="402.7029" y2="808.058" gradientTransform="matrix(1 0 0 -1 0 802)">
				<stop  offset="0" style="stop-color:#B3FFF7"/>
				<stop  offset="0.0844" style="stop-color:#A8F0F8"/>
				<stop  offset="0.5261" style="stop-color:#70A6FC"/>
				<stop  offset="0.8423" style="stop-color:#4C77FE"/>
				<stop  offset="1" style="stop-color:#3F65FF"/>
			</linearGradient>
			<path style="fill:url(#SVGID_00000044141128133293808010000013199625548724960432_);" d="M617.11,226.4l-139.5-45.79
				c-48.66-15.97-101.15-15.97-149.81,0L188.3,226.4c-18.53,6.08-37.6-7.72-37.6-27.23v-95.24c0-16.92,13.72-30.64,30.64-30.64
				h442.72c16.92,0,30.64,13.72,30.64,30.64v95.24C654.71,218.67,635.65,232.48,617.11,226.4z"/>
			<g>
				<g>
					<g>
						
							<linearGradient id="SVGID_00000163785853768718853300000005782147853423749508_" gradientUnits="userSpaceOnUse" x1="322.2571" y1="618.554" x2="322.2571" y2="784.9078" gradientTransform="matrix(1 0 0 -1 0 802)">
							<stop  offset="0" style="stop-color:#BAC4FF"/>
							<stop  offset="0.2192" style="stop-color:#A4B4FF"/>
							<stop  offset="0.7295" style="stop-color:#7691FF"/>
							<stop  offset="0.9855" style="stop-color:#6484FF"/>
						</linearGradient>
						<path style="fill:url(#SVGID_00000163785853768718853300000005782147853423749508_);" d="M381.74,119.58
							c2.09-1.65,3.65-3.63,4.57-5.94c6.05-15.25-17.77-39-53.2-53.06S264.05,47.49,258,62.74c-4.6,11.6,8.08,28.11,30,41.54
							c-8.46,3.23-13.89,8-14.62,13.85c-1.01,8.07,7.15,16.35,20.55,22.56c-6.88,3.65-11.01,8.31-11.01,13.38
							c0,11.75,22.12,21.27,49.41,21.27s49.41-9.52,49.41-21.27c0-3.43-1.89-6.66-5.23-9.52c6.28-3.12,10.23-7.28,10.85-12.2
							C387.91,128.03,385.83,123.66,381.74,119.58z"/>
						
							<linearGradient id="SVGID_00000034070115983607208740000011014805587557339822_" gradientUnits="userSpaceOnUse" x1="483.1549" y1="619.0646" x2="483.1549" y2="782.7521" gradientTransform="matrix(1 0 0 -1 0 802)">
							<stop  offset="0" style="stop-color:#BAC4FF"/>
							<stop  offset="1" style="stop-color:#6484FF"/>
						</linearGradient>
						<path style="fill:url(#SVGID_00000034070115983607208740000011014805587557339822_);" d="M547.41,62.74
							c-6.05-15.25-39.68-16.22-75.11-2.16s-59.25,37.81-53.2,53.06c0.92,2.31,2.48,4.29,4.57,5.94c-4.09,4.08-6.17,8.45-5.63,12.75
							c0.61,4.92,4.57,9.08,10.85,12.2c-3.34,2.87-5.23,6.1-5.23,9.52c0,11.75,22.12,21.27,49.41,21.27s49.41-9.52,49.41-21.27
							c0-5.07-4.13-9.72-11.01-13.38c13.4-6.21,21.56-14.49,20.55-22.56c-0.73-5.85-6.16-10.62-14.62-13.85
							C539.33,90.85,552.01,74.33,547.41,62.74z"/>
					</g>
					
						<linearGradient id="SVGID_00000010276126548923404430000012514464362440197248_" gradientUnits="userSpaceOnUse" x1="402.7128" y1="618.9641" x2="402.7128" y2="740.3843" gradientTransform="matrix(1 0 0 -1 0 802)">
						<stop  offset="0" style="stop-color:#FFEBFF"/>
						<stop  offset="1" style="stop-color:#CB99FF"/>
					</linearGradient>
					<path style="fill:url(#SVGID_00000010276126548923404430000012514464362440197248_);" d="M463.42,142.19V99.3
						c0-8.42-4.49-16.2-11.78-20.41l-37.15-21.45c-7.29-4.21-16.27-4.21-23.56,0l-37.15,21.45C346.49,83.1,342,90.88,342,99.3v42.89
						c0,8.42,4.49,16.2,11.78,20.41l37.15,21.45c7.29,4.21,16.27,4.21,23.56,0l37.15-21.45
						C458.93,158.38,463.42,150.6,463.42,142.19z"/>
				</g>
				<g>
					<path class="st8" d="M402.71,74.12L402.71,74.12c-0.45,0-1.15,0.09-1.86,0.5l-37.14,21.44c-0.61,0.35-1.09,0.86-1.41,1.46
						l40.41,23.35V74.12z"/>
					<path class="st9" d="M402.88,120.97l40.32-23.28c-0.32-0.67-0.83-1.24-1.49-1.62l-37.15-21.45c-0.71-0.41-1.41-0.5-1.86-0.5
						v46.74L402.88,120.97z"/>
					<polygon class="st10" points="402.71,121.06 402.88,120.97 402.71,120.87 					"/>
					<path class="st11" d="M443.02,144.14c0.36-0.58,0.56-1.25,0.56-1.95V99.3c0-0.57-0.14-1.11-0.37-1.61l-40.32,23.28
						L443.02,144.14z"/>
					<path class="st12" d="M402.71,120.87l-40.42-23.33c-0.29,0.53-0.45,1.14-0.45,1.76v42.89c0,0.76,0.24,1.49,0.66,2.1
						l40.21-23.23V120.87z"/>
					<path class="st13" d="M402.88,120.97l-0.17,0.1v46.29c0.46,0,1.15-0.09,1.86-0.5l37.14-21.44c0.54-0.31,0.98-0.76,1.3-1.27
						L402.88,120.97z"/>
					<path class="st14" d="M362.5,144.28c0.31,0.45,0.71,0.85,1.2,1.13l37.15,21.45c0.71,0.41,1.41,0.5,1.86,0.5l0,0v-46.29
						L362.5,144.28z"/>
				</g>
			</g>
		</g>
	</g>
</g>
</svg>
