<?xml version="1.0" encoding="utf-8"?>
<!-- Generator: Adobe Illustrator 25.4.1, SVG Export Plug-In . SVG Version: 6.00 Build 0)  -->
<svg version="1.1" id="Layer_1" xmlns="http://www.w3.org/2000/svg" xmlns:xlink="http://www.w3.org/1999/xlink" x="0px" y="0px"
	 viewBox="0 0 800 800" style="enable-background:new 0 0 800 800;" xml:space="preserve">
<style type="text/css">
	.st0{fill:#440A67;}
	.st1{fill:#FFFFFF;}
</style>
<g>
	<path class="st0" d="M282.45,703.29L96.71,517.55c-64.92-64.92-64.92-170.17,0-235.09L282.45,96.71
		c64.92-64.92,170.17-64.92,235.09,0l185.74,185.74c64.92,64.92,64.92,170.17,0,235.09L517.55,703.29
		C452.63,768.21,347.37,768.21,282.45,703.29z"/>
	<g>
		
			<ellipse transform="matrix(0.3827 -0.9239 0.9239 0.3827 112.9266 600.8973)" class="st1" cx="506.12" cy="215.95" rx="38.98" ry="38.98"/>
		<path class="st1" d="M493.11,282.25h-25.97v93.32H332.86v-93.32h-25.97c-28.71,0-51.98,23.27-51.98,51.98V506.1v10
			c5.08,59.89,55.72,106.93,116.93,106.93c2.6,0,5.17-0.12,7.73-0.28v-74.16c-2.51,0.45-5.09,0.7-7.73,0.7
			c-20.41,0-34.46-14.16-38.98-33.19v-28.62v-33.97h134.28v33.97v28.62c-4.51,19.03-18.57,33.19-38.98,33.19
			c-2.64,0-5.22-0.25-7.73-0.7v74.16c2.56,0.17,5.13,0.28,7.73,0.28c61.21,0,111.85-47.04,116.93-106.93v-10V334.23
			C545.09,305.52,521.82,282.25,493.11,282.25z"/>
		<circle class="st1" cx="293.88" cy="215.95" r="38.98"/>
	</g>
</g>
</svg>
