<?xml version="1.0" encoding="utf-8"?>
<!-- Generator: Adobe Illustrator 25.4.1, SVG Export Plug-In . SVG Version: 6.00 Build 0)  -->
<svg version="1.1" id="Layer_1" xmlns="http://www.w3.org/2000/svg" xmlns:xlink="http://www.w3.org/1999/xlink" x="0px" y="0px"
	 viewBox="0 0 800 800" style="enable-background:new 0 0 800 800;" xml:space="preserve">
<style type="text/css">
	.st0{fill:#FFFFFF;}
</style>
<path class="st0" d="M703.29,282.45L517.55,96.71c-64.92-64.92-170.17-64.92-235.09,0L96.71,282.45
	c-64.92,64.92-64.92,170.17,0,235.09l185.74,185.74c64.92,64.92,170.17,64.92,235.09,0l185.74-185.74
	C768.21,452.63,768.21,347.37,703.29,282.45z M293.88,176.97c21.53,0,38.98,17.45,38.98,38.98c0,21.53-17.45,38.98-38.98,38.98
	s-38.98-17.45-38.98-38.98C254.91,194.42,272.36,176.97,293.88,176.97z M545.09,506.1v10c-5.08,59.89-55.72,106.93-116.93,106.93
	c-2.6,0-5.17-0.12-7.73-0.28v-74.16c2.51,0.45,5.09,0.7,7.73,0.7c20.41,0,34.46-14.16,38.98-33.19v-28.62v-33.97H332.86v33.97v28.62
	c4.51,19.03,18.57,33.19,38.98,33.19c2.64,0,5.22-0.25,7.73-0.7v74.16c-2.56,0.17-5.13,0.28-7.73,0.28
	c-61.21,0-111.85-47.04-116.93-106.93v-10V334.23c0-28.71,23.27-51.98,51.98-51.98h25.97v93.32h134.28v-93.32h25.97
	c28.71,0,51.98,23.27,51.98,51.98V506.1z M506.12,254.92c-21.53,0-38.98-17.45-38.98-38.98c0-21.53,17.45-38.98,38.98-38.98
	s38.98,17.45,38.98,38.98C545.09,237.47,527.64,254.92,506.12,254.92z"/>
</svg>
