<?xml version="1.0" encoding="utf-8"?>
<!-- Generator: Adobe Illustrator 25.4.1, SVG Export Plug-In . SVG Version: 6.00 Build 0)  -->
<svg version="1.1" id="Layer_1" xmlns="http://www.w3.org/2000/svg" xmlns:xlink="http://www.w3.org/1999/xlink" x="0px" y="0px"
	 viewBox="0 0 800 800" style="enable-background:new 0 0 800 800;" xml:space="preserve">
<style type="text/css">
	.st0{fill:url(#SVGID_1_);}
	.st1{fill:url(#SVGID_00000012469629846259488360000015733624709361452988_);stroke:#FFFFFF;stroke-width:7;stroke-miterlimit:10;}
	.st2{fill:url(#SVGID_00000103972748483210265570000000468835308284845444_);}
	.st3{fill:url(#SVGID_00000129192134313804746390000011269294454509556622_);}
	.st4{fill:url(#SVGID_00000132797277008302446680000018396426177561940653_);}
	.st5{fill:url(#SVGID_00000100354540580173532740000002990622382378888845_);}
	.st6{fill:#FFFFFF;}
	.st7{fill:#5C3F93;}
	.st8{fill:#8557CE;}
	.st9{fill:#A982F4;}
	.st10{fill:#63449E;}
	.st11{fill:#976BED;}
	.st12{fill:#7658BF;}
</style>
<g>
	<linearGradient id="SVGID_1_" gradientUnits="userSpaceOnUse" x1="400" y1="666.7126" x2="400" y2="178.9112">
		<stop  offset="0" style="stop-color:#3FC1FF"/>
		<stop  offset="1" style="stop-color:#D42AFF"/>
	</linearGradient>
	<path class="st0" d="M587.8,600.61l-140.88,62.5c-28.95,12.84-64.9,12.84-93.85,0l-140.88-62.5
		c-23.64-10.49-38.15-29.6-38.15-50.24V197.68h451.91v352.68C625.96,571.01,611.45,590.12,587.8,600.61z"/>
	
		<linearGradient id="SVGID_00000023238605623575004570000017481675029402871189_" gradientUnits="userSpaceOnUse" x1="400.0002" y1="625.2726" x2="400.0002" y2="224.7917">
		<stop  offset="0" style="stop-color:#3FC1FF"/>
		<stop  offset="1" style="stop-color:#D42AFF"/>
	</linearGradient>
	
		<path style="fill:url(#SVGID_00000023238605623575004570000017481675029402871189_);stroke:#FFFFFF;stroke-width:7;stroke-miterlimit:10;" d="
		M400,630.22c-10.6,0-20.86-2.07-29.68-5.98l-140.88-62.5c-9.82-4.36-12.88-9.86-12.88-11.38V240.2h366.88v310.16
		c0,1.51-3.05,7.02-12.88,11.38l-140.88,62.5C420.86,628.15,410.6,630.22,400,630.22z"/>
	<g>
		
			<linearGradient id="SVGID_00000114063519734880582640000008455562434340788897_" gradientUnits="userSpaceOnUse" x1="400" y1="227.1895" x2="400" y2="70.5634">
			<stop  offset="0" style="stop-color:#B3FFF7"/>
			<stop  offset="0.0844" style="stop-color:#A8F0F8"/>
			<stop  offset="0.5261" style="stop-color:#70A6FC"/>
			<stop  offset="0.8423" style="stop-color:#4C77FE"/>
			<stop  offset="1" style="stop-color:#3F65FF"/>
		</linearGradient>
		<path style="fill:url(#SVGID_00000114063519734880582640000008455562434340788897_);" d="M614.4,303.02l-139.5-45.79
			c-48.66-15.97-101.15-15.97-149.81,0l-139.5,45.79c-18.53,6.08-37.6-7.72-37.6-27.23v-95.24c0-16.92,13.72-30.64,30.64-30.64
			h442.72c16.92,0,30.64,13.72,30.64,30.64v95.24C652,295.29,632.94,309.1,614.4,303.02z"/>
		<g>
			<g>
				<g>
					
						<linearGradient id="SVGID_00000172422343099892089010000006752033113430055069_" gradientUnits="userSpaceOnUse" x1="319.5525" y1="260.0674" x2="319.5525" y2="93.7136">
						<stop  offset="0" style="stop-color:#BAC4FF"/>
						<stop  offset="0.2192" style="stop-color:#A4B4FF"/>
						<stop  offset="0.7295" style="stop-color:#7691FF"/>
						<stop  offset="0.9855" style="stop-color:#6484FF"/>
					</linearGradient>
					<path style="fill:url(#SVGID_00000172422343099892089010000006752033113430055069_);" d="M379.03,196.2
						c2.09-1.65,3.65-3.63,4.57-5.94c6.05-15.25-17.77-39-53.2-53.06c-35.43-14.06-69.06-13.09-75.11,2.16
						c-4.6,11.6,8.08,28.11,30,41.54c-8.46,3.23-13.89,8-14.62,13.85c-1.01,8.07,7.15,16.35,20.55,22.56
						c-6.88,3.65-11.01,8.31-11.01,13.38c0,11.75,22.12,21.27,49.41,21.27c27.29,0,49.41-9.52,49.41-21.27
						c0-3.43-1.89-6.66-5.23-9.52c6.28-3.12,10.23-7.28,10.85-12.2C385.2,204.65,383.12,200.28,379.03,196.2z"/>
					
						<linearGradient id="SVGID_00000167381476299102595670000013273055113596342428_" gradientUnits="userSpaceOnUse" x1="480.4476" y1="259.5568" x2="480.4476" y2="95.8693">
						<stop  offset="0" style="stop-color:#BAC4FF"/>
						<stop  offset="1" style="stop-color:#6484FF"/>
					</linearGradient>
					<path style="fill:url(#SVGID_00000167381476299102595670000013273055113596342428_);" d="M544.7,139.36
						c-6.05-15.25-39.68-16.22-75.11-2.16c-35.43,14.06-59.25,37.81-53.2,53.06c0.92,2.31,2.48,4.29,4.57,5.94
						c-4.09,4.08-6.17,8.45-5.63,12.75c0.61,4.92,4.57,9.08,10.85,12.2c-3.34,2.87-5.23,6.1-5.23,9.52
						c0,11.75,22.12,21.27,49.41,21.27s49.41-9.52,49.41-21.27c0-5.07-4.13-9.72-11.01-13.38c13.4-6.21,21.56-14.49,20.55-22.56
						c-0.73-5.85-6.16-10.62-14.62-13.85C536.62,167.47,549.3,150.95,544.7,139.36z"/>
				</g>
				
					<linearGradient id="SVGID_00000011752636565180886370000018357000784819299224_" gradientUnits="userSpaceOnUse" x1="400" y1="259.6573" x2="400" y2="138.237">
					<stop  offset="0" style="stop-color:#FFEBFF"/>
					<stop  offset="1" style="stop-color:#CB99FF"/>
				</linearGradient>
				<path style="fill:url(#SVGID_00000011752636565180886370000018357000784819299224_);" d="M460.71,218.81v-42.89
					c0-8.42-4.49-16.2-11.78-20.41l-37.15-21.45c-7.29-4.21-16.27-4.21-23.56,0l-37.15,21.45c-7.29,4.21-11.78,11.99-11.78,20.41
					v42.89c0,8.42,4.49,16.2,11.78,20.41l37.15,21.45c7.29,4.21,16.27,4.21,23.56,0l37.15-21.45
					C456.22,235,460.71,227.22,460.71,218.81z"/>
			</g>
			<g>
				<path class="st6" d="M400,150.74C400,150.74,400,150.74,400,150.74c-0.45,0-1.15,0.09-1.86,0.5l-37.14,21.44
					c-0.61,0.35-1.09,0.86-1.41,1.46L400,197.49V150.74z"/>
				<path class="st7" d="M400.17,197.59l40.32-23.28c-0.32-0.67-0.83-1.24-1.49-1.62l-37.15-21.45c-0.71-0.41-1.41-0.5-1.86-0.5
					v46.74L400.17,197.59z"/>
				<polygon class="st8" points="400,197.68 400.17,197.59 400,197.49 				"/>
				<path class="st9" d="M440.31,220.76c0.36-0.58,0.56-1.25,0.56-1.95v-42.89c0-0.57-0.14-1.11-0.37-1.61l-40.32,23.28
					L440.31,220.76z"/>
				<path class="st10" d="M400,197.49l-40.42-23.33c-0.29,0.53-0.45,1.14-0.45,1.76v42.89c0,0.76,0.24,1.49,0.66,2.1L400,197.68
					V197.49z"/>
				<path class="st11" d="M400.17,197.59l-0.17,0.1v46.29c0.46,0,1.15-0.09,1.86-0.5l37.14-21.44c0.54-0.31,0.98-0.76,1.3-1.27
					L400.17,197.59z"/>
				<path class="st12" d="M359.79,220.9c0.31,0.45,0.71,0.85,1.2,1.13l37.15,21.45c0.71,0.41,1.41,0.5,1.86,0.5c0,0,0,0,0,0v-46.29
					L359.79,220.9z"/>
			</g>
		</g>
	</g>
</g>
</svg>
