<?xml version="1.0" encoding="utf-8"?>
<!-- Generator: Adobe Illustrator 25.4.1, SVG Export Plug-In . SVG Version: 6.00 Build 0)  -->
<svg version="1.1" id="Layer_1" xmlns="http://www.w3.org/2000/svg" xmlns:xlink="http://www.w3.org/1999/xlink" x="0px" y="0px"
	 viewBox="0 0 800 800" style="enable-background:new 0 0 800 800;" xml:space="preserve">
<style type="text/css">
	.st0{fill:#FF902C;}
	.st1{fill:#FFE09C;}
	.st2{fill:#FF4D4D;}
	.st3{fill:#FF9797;}
	.st4{fill:#FFFFFF;}
	.st5{fill:#8AE3FF;}
	.st6{fill:#FFAA64;}
</style>
<g>
	<g>
		<polygon class="st0" points="389.31,398.87 111.81,530.79 111.81,261.78 389.31,129.86 666.8,261.78 666.8,530.79 		"/>
	</g>
	<g>
		<circle class="st1" cx="385.5" cy="291.27" r="185.25"/>
	</g>
	<g>
		<g>
			<path d="M434.53,178.06c-10.61,0-20.62-5.36-29.76-15.94l4.52-3.9c7.95,9.21,16.44,13.87,25.24,13.87c0.1,0,0.2,0,0.29,0
				c14.91-0.18,26.2-13.68,26.31-13.81l4.62,3.78c-0.53,0.64-13.1,15.76-30.81,16C434.81,178.06,434.67,178.06,434.53,178.06z"/>
		</g>
		<g>
			<path d="M330.15,178.06c-10.61,0-20.62-5.36-29.76-15.94l4.52-3.9c7.95,9.21,16.44,13.87,25.24,13.87c0.1,0,0.2,0,0.29,0
				c14.91-0.18,26.2-13.68,26.31-13.81l4.62,3.78c-0.53,0.64-13.1,15.76-30.81,16C330.43,178.06,330.29,178.06,330.15,178.06z"/>
		</g>
	</g>
	<g>
		<path class="st2" d="M385.5,239c-21.75,0-39.65,16.46-41.93,37.61l83.87,0C425.15,255.46,407.25,239,385.5,239z"/>
	</g>
	<g>
		<g>
			<ellipse class="st3" cx="272.67" cy="232.44" rx="18.3" ry="10.01"/>
		</g>
		<g>
			<ellipse class="st3" cx="498.32" cy="232.44" rx="18.3" ry="10.01"/>
		</g>
	</g>
	<g>
		<path class="st4" d="M711.8,121.72c15.15-37.47-2.95-80.13-40.42-95.28s-80.13,2.95-95.28,40.42
			c-13.05,32.29-1.42,68.42,26.02,87.5l-29.26,72.36l30.17,12.2l29.26-72.36C665.27,171.91,698.75,154.01,711.8,121.72z"/>
	</g>
	<g>
		<path d="M663.88,141.07l-14.12-5.71l-7.35-32.28l-27.62,18.14l-14.3-5.78l38.92-25.38l-9.98-44.08l14.39,5.82l6.93,30.93
			l26.57-17.39l14.12,5.71l-37.78,24.66L663.88,141.07z"/>
	</g>
	<g>
		<path class="st4" d="M228.65,82.33c-5.04-40.1-41.64-68.53-81.75-63.48s-68.53,41.64-63.48,81.74
			c4.35,34.55,32.12,60.43,65.37,63.71l9.74,77.44l32.29-4.06l-9.74-77.44C212.49,148.83,233,116.88,228.65,82.33z"/>
	</g>
	<g>
		<path d="M192.29,120.3l-15.11,1.9l-22.15-24.6l-15.27,29.31l-15.31,1.92l21.61-41.14l-30.21-33.62l15.41-1.94l21.13,23.63
			l14.72-28.13l15.11-1.9l-20.96,39.95L192.29,120.3z"/>
	</g>
	<g>
		
			<ellipse transform="matrix(0.3907 -0.9205 0.9205 0.3907 -96.6773 338.8403)" class="st1" cx="207.63" cy="242.45" rx="35.33" ry="60.13"/>
	</g>
	<g>
		
			<ellipse transform="matrix(0.8645 -0.5027 0.5027 0.8645 -38.2364 319.7827)" class="st1" cx="573.89" cy="230.8" rx="60.13" ry="35.33"/>
	</g>
	<g>
		<path class="st4" d="M180.69,775.66h-13.54l-33.54-52.35h-1l0.4,8.96v43.39h-13.44v-75.24h13.54l33.54,52.45h1l-0.3-8.96v-43.49
			h13.34V775.66z"/>
		<path class="st4" d="M259.92,738.04c0,6.11-0.75,11.55-2.24,16.32c-1.49,4.78-3.63,8.83-6.42,12.14
			c-2.79,3.32-6.21,5.84-10.25,7.56c-4.05,1.72-8.63,2.59-13.73,2.59c-5.11,0-9.69-0.86-13.74-2.59c-4.05-1.73-7.46-4.25-10.25-7.56
			c-2.79-3.32-4.93-7.37-6.42-12.14c-1.49-4.78-2.24-10.22-2.24-16.32c0-6.1,0.75-11.55,2.24-16.32c1.49-4.78,3.63-8.82,6.42-12.14
			c2.79-3.32,6.2-5.84,10.25-7.56c4.05-1.72,8.62-2.59,13.74-2.59c5.11,0,9.69,0.86,13.73,2.59c4.05,1.73,7.46,4.25,10.25,7.56
			c2.79,3.32,4.93,7.37,6.42,12.14C259.17,726.5,259.92,731.94,259.92,738.04z M246.58,738.04c0-4.25-0.42-8.04-1.24-11.4
			c-0.83-3.35-2.04-6.2-3.63-8.56c-1.59-2.35-3.6-4.16-6.02-5.42c-2.42-1.26-5.23-1.89-8.41-1.89c-3.19,0-5.99,0.63-8.41,1.89
			c-2.42,1.26-4.43,3.07-6.02,5.42c-1.59,2.36-2.8,5.21-3.63,8.56c-0.83,3.35-1.24,7.15-1.24,11.4c0,8.49,1.63,15.16,4.88,20.01
			c3.25,4.84,8.06,7.27,14.43,7.27c6.37,0,11.18-2.42,14.43-7.27C244.96,753.2,246.58,746.54,246.58,738.04z"/>
		<path class="st4" d="M327.4,711.77h-24.58v63.9h-13.34v-63.9H264.9v-11.35h62.5V711.77z"/>
		<path class="st4" d="M398.76,775.66h-13.34v-33.04h-34.24v33.04h-13.34v-75.24h13.34v30.85h34.24v-30.85h13.34V775.66z"/>
		<path class="st4" d="M430.51,775.66h-13.34v-75.24h13.34V775.66z"/>
		<path class="st4" d="M510.04,775.66H496.5l-33.54-52.35h-1l0.4,8.96v43.39h-13.44v-75.24h13.54L496,752.87h1l-0.3-8.96v-43.49
			h13.34V775.66z"/>
		<path class="st4" d="M586.08,763.02c-1.13,1.79-2.57,3.52-4.33,5.18c-1.76,1.66-3.83,3.1-6.22,4.33
			c-2.39,1.23-5.14,2.21-8.26,2.94c-3.12,0.73-6.57,1.09-10.35,1.09c-5.04,0-9.59-0.85-13.64-2.54c-4.05-1.69-7.5-4.18-10.35-7.46
			c-2.85-3.28-5.06-7.32-6.62-12.09c-1.56-4.78-2.34-10.25-2.34-16.42s0.78-11.65,2.34-16.42c1.56-4.78,3.77-8.81,6.62-12.09
			c2.85-3.28,6.3-5.77,10.35-7.46c4.05-1.69,8.59-2.54,13.64-2.54c7.43,0,13.75,1.93,18.96,5.77c5.21,3.85,8.61,9.59,10.2,17.22
			h-13.34c-0.73-3.65-2.46-6.5-5.18-8.56c-2.72-2.06-6.27-3.09-10.65-3.09c-6.24,0-11.06,2.37-14.48,7.12
			c-3.42,4.74-5.13,11.43-5.13,20.06c0,8.63,1.71,15.31,5.13,20.06c3.42,4.74,8.24,7.12,14.48,7.12c4.38,0,7.81-0.5,10.3-1.49
			c2.49-1,4.33-2.32,5.52-3.98V746.1h-16.72v-11.35h30.06V763.02z"/>
		<path class="st4" d="M614.64,772.78c0,2.45-0.83,4.56-2.49,6.32c-1.66,1.76-3.85,2.64-6.57,2.64c-2.72,0-4.91-0.88-6.57-2.64
			c-1.66-1.76-2.49-3.87-2.49-6.32c0-2.45,0.83-4.56,2.49-6.32c1.66-1.76,3.85-2.64,6.57-2.64c2.72,0,4.91,0.88,6.57,2.64
			C613.81,768.22,614.64,770.32,614.64,772.78z"/>
		<path class="st4" d="M646.69,772.78c0,2.45-0.83,4.56-2.49,6.32c-1.66,1.76-3.85,2.64-6.57,2.64c-2.72,0-4.91-0.88-6.57-2.64
			c-1.66-1.76-2.49-3.87-2.49-6.32c0-2.45,0.83-4.56,2.49-6.32c1.66-1.76,3.85-2.64,6.57-2.64c2.72,0,4.91,0.88,6.57,2.64
			C645.86,768.22,646.69,770.32,646.69,772.78z"/>
		<path class="st4" d="M678.74,772.78c0,2.45-0.83,4.56-2.49,6.32c-1.66,1.76-3.85,2.64-6.57,2.64c-2.72,0-4.91-0.88-6.57-2.64
			c-1.66-1.76-2.49-3.87-2.49-6.32c0-2.45,0.83-4.56,2.49-6.32c1.66-1.76,3.85-2.64,6.57-2.64c2.72,0,4.91,0.88,6.57,2.64
			C677.91,768.22,678.74,770.32,678.74,772.78z"/>
	</g>
	<g>
		<rect x="325.13" y="217.44" class="st5" width="11.48" height="164.55"/>
	</g>
	<g>
		<rect x="435.24" y="217.44" class="st5" width="11.48" height="164.55"/>
	</g>
	<g>
		<g>
			<g>
				<g>
					<circle cx="335.75" cy="205.13" r="17.3"/>
				</g>
				<g>
					<circle cx="435.24" cy="205.13" r="17.3"/>
				</g>
			</g>
			<g>
				<circle class="st4" cx="343.38" cy="199.54" r="7.62"/>
			</g>
		</g>
		<g>
			<circle class="st4" cx="442.86" cy="199.54" r="7.62"/>
		</g>
	</g>
	<g>
		<g>
			<polygon class="st6" points="389.31,663.56 111.81,531.64 111.81,262.63 389.31,394.55 			"/>
		</g>
		<g>
			<polygon class="st0" points="389.31,663.56 666.8,531.64 666.8,262.63 389.31,394.55 			"/>
		</g>
	</g>
</g>
</svg>
