<?xml version="1.0" encoding="utf-8"?>
<!-- Generator: Adobe Illustrator 25.4.1, SVG Export Plug-In . SVG Version: 6.00 Build 0)  -->
<svg version="1.1" id="Layer_1" xmlns="http://www.w3.org/2000/svg" xmlns:xlink="http://www.w3.org/1999/xlink" x="0px" y="0px"
	 viewBox="0 0 800 800" style="enable-background:new 0 0 800 800;" xml:space="preserve">
<style type="text/css">
	.st0{fill:#FF902C;}
	.st1{fill:#FFE09C;}
	.st2{fill:#FF4D4D;}
	.st3{fill:#FF9797;}
	.st4{fill:#FFFFFF;}
	.st5{fill:#8AE3FF;}
	.st6{fill:#FFAA64;}
</style>
<g>
	<g>
		<polygon class="st0" points="389.31,457.95 111.81,589.87 111.81,320.86 389.31,188.94 666.8,320.86 666.8,589.87 		"/>
	</g>
	<g>
		<circle class="st1" cx="385.5" cy="350.36" r="185.25"/>
	</g>
	<g>
		<g>
			<path d="M434.53,237.15c-10.61,0-20.62-5.36-29.76-15.94l4.52-3.9c7.95,9.21,16.44,13.87,25.24,13.87c0.1,0,0.2,0,0.29,0
				c14.91-0.18,26.2-13.68,26.31-13.81l4.62,3.78c-0.53,0.64-13.1,15.76-30.81,16C434.81,237.15,434.67,237.15,434.53,237.15z"/>
		</g>
		<g>
			<path d="M330.15,237.15c-10.61,0-20.62-5.36-29.76-15.94l4.52-3.9c7.95,9.21,16.44,13.87,25.24,13.87c0.1,0,0.2,0,0.29,0
				c14.91-0.18,26.2-13.68,26.31-13.81l4.62,3.78c-0.53,0.64-13.1,15.76-30.81,16C330.43,237.15,330.29,237.15,330.15,237.15z"/>
		</g>
	</g>
	<g>
		<path class="st2" d="M385.5,298.08c-21.75,0-39.65,16.46-41.93,37.61l83.87,0C425.15,314.55,407.25,298.08,385.5,298.08z"/>
	</g>
	<g>
		<g>
			<ellipse class="st3" cx="272.67" cy="291.53" rx="18.3" ry="10.01"/>
		</g>
		<g>
			<ellipse class="st3" cx="498.32" cy="291.53" rx="18.3" ry="10.01"/>
		</g>
	</g>
	<g>
		<path class="st4" d="M711.8,180.81c15.15-37.47-2.95-80.13-40.42-95.28s-80.13,2.95-95.28,40.42
			c-13.05,32.29-1.42,68.42,26.02,87.5l-29.26,72.36l30.17,12.2l29.26-72.36C665.27,231,698.75,213.1,711.8,180.81z"/>
	</g>
	<g>
		<path d="M663.88,200.16l-14.12-5.71l-7.35-32.28l-27.62,18.14l-14.3-5.78l38.92-25.38l-9.98-44.08l14.39,5.82l6.93,30.93
			l26.57-17.39l14.12,5.71l-37.78,24.66L663.88,200.16z"/>
	</g>
	<g>
		<path class="st4" d="M228.65,141.42c-5.04-40.1-41.64-68.53-81.75-63.48c-40.1,5.04-68.53,41.64-63.48,81.74
			c4.35,34.55,32.12,60.43,65.37,63.71l9.74,77.44l32.29-4.06l-9.74-77.44C212.49,207.92,233,175.97,228.65,141.42z"/>
	</g>
	<g>
		<path d="M192.29,179.39l-15.11,1.9l-22.15-24.6L139.75,186l-15.31,1.92l21.61-41.14l-30.21-33.62l15.41-1.94l21.13,23.63
			l14.72-28.13l15.11-1.9l-20.96,39.95L192.29,179.39z"/>
	</g>
	<g>
		
			<ellipse transform="matrix(0.3907 -0.9205 0.9205 0.3907 -151.0689 374.8414)" class="st1" cx="207.63" cy="301.54" rx="35.33" ry="60.13"/>
	</g>
	<g>
		
			<ellipse transform="matrix(0.8645 -0.5027 0.5027 0.8645 -67.9408 327.7917)" class="st1" cx="573.89" cy="289.89" rx="60.13" ry="35.33"/>
	</g>
	<g>
		<rect x="325.13" y="276.53" class="st5" width="11.48" height="164.55"/>
	</g>
	<g>
		<rect x="435.24" y="276.53" class="st5" width="11.48" height="164.55"/>
	</g>
	<g>
		<g>
			<g>
				<g>
					<circle cx="335.75" cy="264.22" r="17.3"/>
				</g>
				<g>
					<circle cx="435.24" cy="264.22" r="17.3"/>
				</g>
			</g>
			<g>
				<circle class="st4" cx="343.38" cy="258.63" r="7.62"/>
			</g>
		</g>
		<g>
			<circle class="st4" cx="442.86" cy="258.63" r="7.62"/>
		</g>
	</g>
	<g>
		<g>
			<polygon class="st6" points="389.31,722.65 111.81,590.73 111.81,321.72 389.31,453.64 			"/>
		</g>
		<g>
			<polygon class="st0" points="389.31,722.65 666.8,590.73 666.8,321.72 389.31,453.64 			"/>
		</g>
	</g>
</g>
</svg>
