<?xml version="1.0" encoding="utf-8"?>
<!-- Generator: Adobe Illustrator 25.4.1, SVG Export Plug-In . SVG Version: 6.00 Build 0)  -->
<svg version="1.1" id="Layer_1" xmlns="http://www.w3.org/2000/svg" xmlns:xlink="http://www.w3.org/1999/xlink" x="0px" y="0px"
	 viewBox="0 0 800 800" style="enable-background:new 0 0 800 800;" xml:space="preserve">
<style type="text/css">
	.st0{fill:#FFFFFF;}
	.st1{fill:#440A67;}
	.st2{font-family:'NEXONLv2GothicBold';}
	.st3{font-size:167.364px;}
</style>
<g>
	<path class="st0" d="M400,730.89L400,730.89c-111.86,0-202.55-90.68-202.55-202.55v-256.7c0-111.86,90.68-202.55,202.55-202.55h0
		c111.86,0,202.55,90.68,202.55,202.55v256.7C602.55,640.21,511.86,730.89,400,730.89z"/>
	<g>
		<path class="st1" d="M400,390.08h-85.58c-26.38,0-42.87-28.56-29.68-51.41l42.79-74.12l42.79-74.12
			c13.19-22.85,46.17-22.85,59.36,0l42.79,74.12l42.79,74.12c13.19,22.85-3.3,51.41-29.68,51.41H400z"/>
		<text transform="matrix(1 0 0 1 280.0979 580.3411)" class="st1 st2 st3">UP</text>
	</g>
</g>
</svg>
