<?xml version="1.0" encoding="utf-8"?>
<!-- Generator: Adobe Illustrator 25.4.1, SVG Export Plug-In . SVG Version: 6.00 Build 0)  -->
<svg version="1.1" id="Layer_1" xmlns="http://www.w3.org/2000/svg" xmlns:xlink="http://www.w3.org/1999/xlink" x="0px" y="0px"
	 viewBox="0 0 800 800" style="enable-background:new 0 0 800 800;" xml:space="preserve">
<style type="text/css">
	.st0{fill:url(#SVGID_1_);}
	.st1{fill:url(#SVGID_00000145030620975721084000000014451609910374011832_);}
	.st2{fill:url(#SVGID_00000117672256675268212300000008340983977002873767_);}
	.st3{fill:url(#SVGID_00000175315115433326921580000007218831124964026808_);}
	.st4{fill:#6D3A3A;}
	.st5{fill:#FFFAFA;}
	.st6{fill:#FF4343;}
	.st7{fill:#D83F3F;}
</style>
<g>
	<linearGradient id="SVGID_1_" gradientUnits="userSpaceOnUse" x1="400" y1="486.3428" x2="400" y2="331.7873">
		<stop  offset="0" style="stop-color:#FFE66A"/>
		<stop  offset="1" style="stop-color:#FF9355"/>
	</linearGradient>
	<path class="st0" d="M614.4,484.89L474.9,439.1c-48.66-15.97-101.15-15.97-149.81,0l-139.5,45.79c-18.53,6.08-37.6-7.72-37.6-27.23
		v-95.24c0-16.92,13.72-30.64,30.64-30.64h442.72c16.92,0,30.64,13.72,30.64,30.64v95.24C652,477.17,632.94,490.98,614.4,484.89z"/>
	<g>
		<g>
			
				<linearGradient id="SVGID_00000119815145696486016730000016757387171562298011_" gradientUnits="userSpaceOnUse" x1="337.5575" y1="460.5999" x2="337.5575" y2="240.3494">
				<stop  offset="0" style="stop-color:#FF8415"/>
				<stop  offset="1" style="stop-color:#FF5615"/>
			</linearGradient>
			<path style="fill:url(#SVGID_00000119815145696486016730000016757387171562298011_);" d="M353.06,330.85
				c-33.4-19.28-67.42-22.89-75.98-8.06c-8.56,14.83,11.57,42.48,44.97,61.77c2.68,1.55,5.36,2.98,8.03,4.32
				c-26.38,16.27-41.89,38.43-34.9,50.54c7.29,12.62,36.23,9.55,64.65-6.86c23.18-13.38,38.84-31.5,39.88-44.58
				C402.58,372.53,383.24,348.28,353.06,330.85z"/>
			
				<linearGradient id="SVGID_00000124127200352507378240000005200268010122249650_" gradientUnits="userSpaceOnUse" x1="-3640.7583" y1="457.536" x2="-3640.7583" y2="237.9084" gradientTransform="matrix(-1 0 0 1 -3178.3157 0)">
				<stop  offset="0" style="stop-color:#FF9F3F"/>
				<stop  offset="1" style="stop-color:#FF5615"/>
			</linearGradient>
			<path style="fill:url(#SVGID_00000124127200352507378240000005200268010122249650_);" d="M446.94,330.85
				c33.4-19.28,67.42-22.89,75.98-8.06c8.56,14.83-11.57,42.48-44.97,61.77c-2.68,1.55-5.36,2.98-8.03,4.32
				c26.38,16.27,41.89,38.43,34.9,50.54c-7.29,12.62-36.23,9.55-64.65-6.86c-23.18-13.38-38.84-31.5-39.88-44.58
				C397.42,372.53,416.76,348.28,446.94,330.85z"/>
		</g>
		<g>
			
				<linearGradient id="SVGID_00000157270824710644266750000018196370659152808078_" gradientUnits="userSpaceOnUse" x1="400" y1="435.5745" x2="400" y2="302.0378">
				<stop  offset="0" style="stop-color:#FCFFBF"/>
				<stop  offset="1" style="stop-color:#FFC53F"/>
			</linearGradient>
			<path style="fill:url(#SVGID_00000157270824710644266750000018196370659152808078_);" d="M381.76,439.64l-40.98-40.98
				c-10.07-10.07-10.07-26.4,0-36.47l40.98-40.98c10.07-10.07,26.4-10.07,36.47,0l40.98,40.98c10.07,10.07,10.07,26.4,0,36.47
				l-40.98,40.98C408.16,449.71,391.84,449.71,381.76,439.64z"/>
			<g>
				<path class="st4" d="M446.93,380.43C446.93,380.43,446.93,380.43,446.93,380.43c0-1.12-0.3-2.77-1.74-4.21l-40.98-40.98
					c-1.44-1.44-3.08-1.74-4.21-1.74v46.93H446.93z"/>
				<path class="st5" d="M400,333.5L400,333.5c-1.12,0-2.77,0.3-4.21,1.74l-40.98,40.98c-1.44,1.44-1.74,3.08-1.74,4.2c0,0,0,0,0,0
					H400V333.5z"/>
				<path class="st6" d="M400,380.43v46.93c1.12,0,2.77-0.3,4.21-1.74l40.98-40.98c1.44-1.44,1.74-3.08,1.74-4.2H400z"/>
				<path class="st7" d="M353.07,380.43c0,1.12,0.3,2.77,1.74,4.21l40.98,40.98c1.44,1.44,3.08,1.74,4.21,1.74l0,0v-46.93H353.07z"
					/>
			</g>
		</g>
	</g>
</g>
</svg>
