<?xml version="1.0" encoding="utf-8"?>
<!-- Generator: Adobe Illustrator 25.4.1, SVG Export Plug-In . SVG Version: 6.00 Build 0)  -->
<svg version="1.1" id="Layer_1" xmlns="http://www.w3.org/2000/svg" xmlns:xlink="http://www.w3.org/1999/xlink" x="0px" y="0px"
	 viewBox="0 0 800 800" style="enable-background:new 0 0 800 800;" xml:space="preserve">
<style type="text/css">
	.st0{fill:url(#SVGID_1_);}
	.st1{fill:url(#SVGID_00000075854308770450032540000015485005443872029607_);stroke:#FFFFFF;stroke-width:7;stroke-miterlimit:10;}
	.st2{fill:url(#SVGID_00000064323306777563703170000014022585131515066246_);}
	.st3{fill:url(#SVGID_00000044856309100318853800000007058053900593115269_);}
	.st4{fill:url(#SVGID_00000001660517513023313250000011646807156567160218_);}
	.st5{fill:url(#SVGID_00000111149250980950089550000010577043360088415127_);}
	.st6{fill:#6D3A3A;}
	.st7{fill:#FFFAFA;}
	.st8{fill:#FF4343;}
	.st9{fill:#D83F3F;}
</style>
<g>
	<linearGradient id="SVGID_1_" gradientUnits="userSpaceOnUse" x1="400" y1="653.998" x2="400" y2="166.1965">
		<stop  offset="0" style="stop-color:#FF993B"/>
		<stop  offset="1" style="stop-color:#FF1515"/>
	</linearGradient>
	<path class="st0" d="M587.8,592.3l-140.88,62.5c-28.95,12.84-64.9,12.84-93.85,0L212.2,592.3c-23.64-10.49-38.15-29.6-38.15-50.24
		V189.38h451.91v352.68C625.96,562.71,611.45,581.81,587.8,592.3z"/>
	
		<linearGradient id="SVGID_00000113338501024120959040000006219394564532345494_" gradientUnits="userSpaceOnUse" x1="400" y1="613.3473" x2="400" y2="212.8664">
		<stop  offset="0" style="stop-color:#FF993B"/>
		<stop  offset="1" style="stop-color:#FF1515"/>
	</linearGradient>
	
		<path style="fill:url(#SVGID_00000113338501024120959040000006219394564532345494_);stroke:#FFFFFF;stroke-width:7;stroke-miterlimit:10;" d="
		M400,621.92c-10.6,0-20.86-2.07-29.68-5.98l-140.88-62.5c-9.82-4.36-12.88-9.86-12.88-11.38V231.9h366.88v310.16
		c0,1.51-3.05,7.02-12.88,11.38l-140.88,62.5C420.86,619.85,410.6,621.92,400,621.92z"/>
	<g>
		
			<linearGradient id="SVGID_00000139256232940193323520000001624576576014496693_" gradientUnits="userSpaceOnUse" x1="400" y1="308.248" x2="400" y2="153.6926">
			<stop  offset="0" style="stop-color:#FFE66A"/>
			<stop  offset="1" style="stop-color:#FF9355"/>
		</linearGradient>
		<path style="fill:url(#SVGID_00000139256232940193323520000001624576576014496693_);" d="M614.4,306.8L474.9,261
			c-48.66-15.97-101.15-15.97-149.81,0L185.6,306.8c-18.53,6.08-37.6-7.72-37.6-27.23v-95.24c0-16.92,13.72-30.64,30.64-30.64
			h442.72c16.92,0,30.64,13.72,30.64,30.64v95.24C652,299.07,632.94,312.88,614.4,306.8z"/>
		<g>
			<g>
				
					<linearGradient id="SVGID_00000127004942585561330520000000241016919905678240_" gradientUnits="userSpaceOnUse" x1="337.5575" y1="282.5052" x2="337.5575" y2="62.2547">
					<stop  offset="0" style="stop-color:#FF8415"/>
					<stop  offset="1" style="stop-color:#FF5615"/>
				</linearGradient>
				<path style="fill:url(#SVGID_00000127004942585561330520000000241016919905678240_);" d="M353.06,152.76
					c-33.4-19.28-67.42-22.89-75.98-8.06c-8.56,14.83,11.57,42.48,44.97,61.77c2.68,1.55,5.36,2.98,8.03,4.32
					c-26.38,16.27-41.89,38.43-34.9,50.54c7.29,12.62,36.23,9.55,64.65-6.86c23.18-13.38,38.84-31.5,39.88-44.58
					C402.58,194.43,383.24,170.18,353.06,152.76z"/>
				
					<linearGradient id="SVGID_00000150825105381363517450000007639013579593626248_" gradientUnits="userSpaceOnUse" x1="-3640.7583" y1="279.4413" x2="-3640.7583" y2="59.8136" gradientTransform="matrix(-1 0 0 1 -3178.3157 0)">
					<stop  offset="0" style="stop-color:#FF9F3F"/>
					<stop  offset="1" style="stop-color:#FF5615"/>
				</linearGradient>
				<path style="fill:url(#SVGID_00000150825105381363517450000007639013579593626248_);" d="M446.94,152.76
					c33.4-19.28,67.42-22.89,75.98-8.06c8.56,14.83-11.57,42.48-44.97,61.77c-2.68,1.55-5.36,2.98-8.03,4.32
					c26.38,16.27,41.89,38.43,34.9,50.54c-7.29,12.62-36.23,9.55-64.65-6.86c-23.18-13.38-38.84-31.5-39.88-44.58
					C397.42,194.43,416.76,170.18,446.94,152.76z"/>
			</g>
			<g>
				
					<linearGradient id="SVGID_00000155122828817851427550000012436152487025193907_" gradientUnits="userSpaceOnUse" x1="400" y1="257.4798" x2="400" y2="123.9431">
					<stop  offset="0" style="stop-color:#FCFFBF"/>
					<stop  offset="1" style="stop-color:#FFC53F"/>
				</linearGradient>
				<path style="fill:url(#SVGID_00000155122828817851427550000012436152487025193907_);" d="M381.76,261.55l-40.98-40.98
					c-10.07-10.07-10.07-26.4,0-36.47l40.98-40.98c10.07-10.07,26.4-10.07,36.47,0l40.98,40.98c10.07,10.07,10.07,26.4,0,36.47
					l-40.98,40.98C408.16,271.62,391.84,271.62,381.76,261.55z"/>
				<g>
					<path class="st6" d="M446.93,202.33C446.93,202.33,446.93,202.33,446.93,202.33c0-1.12-0.3-2.77-1.74-4.21l-40.98-40.98
						c-1.44-1.44-3.08-1.74-4.21-1.74v46.93H446.93z"/>
					<path class="st7" d="M400,155.41L400,155.41c-1.12,0-2.77,0.3-4.21,1.74l-40.98,40.98c-1.44,1.44-1.74,3.08-1.74,4.2
						c0,0,0,0,0,0H400V155.41z"/>
					<path class="st8" d="M400,202.33v46.93c1.12,0,2.77-0.3,4.21-1.74l40.98-40.98c1.44-1.44,1.74-3.08,1.74-4.2H400z"/>
					<path class="st9" d="M353.07,202.33c0,1.12,0.3,2.77,1.74,4.21l40.98,40.98c1.44,1.44,3.08,1.74,4.21,1.74l0,0v-46.93H353.07z"
						/>
				</g>
			</g>
		</g>
	</g>
</g>
</svg>
