<?xml version="1.0" encoding="utf-8"?>
<!-- Generator: Adobe Illustrator 25.4.1, SVG Export Plug-In . SVG Version: 6.00 Build 0)  -->
<svg version="1.1" id="Layer_1" xmlns="http://www.w3.org/2000/svg" xmlns:xlink="http://www.w3.org/1999/xlink" x="0px" y="0px"
	 viewBox="0 0 800 800" style="enable-background:new 0 0 800 800;" xml:space="preserve">
<style type="text/css">
	.st0{fill:#FF902C;}
	.st1{fill:#FFE09C;}
	.st2{fill:#FFFFFF;}
	.st3{fill:#FFAA64;}
	.st4{fill:#FF4D4D;}
	.st5{fill:#FF9797;}
</style>
<g>
	<g>
		<polygon class="st0" points="389.28,395.07 111.08,527.32 111.08,257.63 389.28,125.38 667.48,257.63 667.48,527.32 		"/>
	</g>
	<g>
		<circle class="st1" cx="385.46" cy="287.21" r="185.72"/>
	</g>
	<g>
		<g>
			<circle cx="335.59" cy="200.84" r="17.34"/>
		</g>
		<g>
			<circle cx="435.33" cy="200.84" r="17.34"/>
		</g>
	</g>
	<g>
		<circle class="st2" cx="343.23" cy="195.24" r="7.64"/>
	</g>
	<g>
		<circle class="st2" cx="442.97" cy="195.24" r="7.64"/>
	</g>
	<g>
		<g>
			<polygon class="st3" points="389.28,660.43 111.08,528.18 111.08,258.49 389.28,390.74 			"/>
		</g>
		<g>
			<polygon class="st0" points="389.28,660.43 667.48,528.18 667.48,258.49 389.28,390.74 			"/>
		</g>
	</g>
	<g>
		<g>
			<path d="M356.7,172.67c-7.97-9.23-16.49-13.91-25.31-13.91c-0.1,0-0.2,0-0.3,0c-14.95,0.18-26.26,13.71-26.37,13.85l-4.63-3.79
				c0.53-0.65,13.13-15.8,30.89-16.04c10.79-0.14,20.97,5.23,30.25,15.98L356.7,172.67z"/>
		</g>
		<g>
			<path d="M461.34,172.67c-7.97-9.23-16.49-13.91-25.31-13.91c-0.11,0-0.22,0-0.33,0c-15,0.2-26.22,13.71-26.33,13.85l-4.63-3.79
				c0.53-0.65,13.13-15.8,30.89-16.04c0.14,0,0.28,0,0.42,0c10.64,0,20.67,5.38,29.83,15.98L461.34,172.67z"/>
		</g>
	</g>
	<g>
		<path class="st4" d="M385.46,272.5c21.81,0,39.75-16.51,42.04-37.7h-84.08C345.71,255.99,363.65,272.5,385.46,272.5z"/>
	</g>
	<g>
		<g>
			<ellipse class="st5" cx="272.34" cy="228.22" rx="18.34" ry="10.04"/>
		</g>
		<g>
			<ellipse class="st5" cx="498.57" cy="228.22" rx="18.34" ry="10.04"/>
		</g>
	</g>
	<g>
		<g>
			<path class="st2" d="M712.59,117.23c15.19-37.57-2.95-80.33-40.52-95.52s-80.33,2.95-95.52,40.52
				c-13.09,32.37-1.43,68.6,26.08,87.72l-29.33,72.55l30.25,12.23l29.33-72.55C665.95,167.54,699.51,149.6,712.59,117.23z"/>
		</g>
		<g>
			<path d="M640.87,123.12c-0.92,2.28-2.49,3.93-4.69,4.94c-2.2,1.01-4.57,1.01-7.1-0.02c-2.53-1.02-4.23-2.66-5.11-4.92
				c-0.88-2.26-0.86-4.53,0.06-6.81c0.92-2.28,2.48-3.93,4.69-4.94c2.2-1.01,4.57-1.01,7.1,0.02c2.53,1.02,4.23,2.66,5.11,4.92
				C641.81,118.56,641.79,120.83,640.87,123.12z M668.79,51.64l-24.48,55.22l-11.47-4.64l20.78-56.72L668.79,51.64z"/>
		</g>
	</g>
	<g>
		<g>
			<path class="st2" d="M228.22,77.73c-5.06-40.21-41.75-68.7-81.95-63.64s-68.7,41.75-63.64,81.95
				c4.36,34.64,32.2,60.59,65.54,63.87l9.76,77.64l32.37-4.07l-9.76-77.64C212.02,144.4,232.57,112.37,228.22,77.73z"/>
		</g>
		<g>
			<path d="M176.89,62.11c0.27,2.18,0.23,4.23-0.13,6.15c-0.36,1.92-0.94,3.74-1.73,5.45c-0.79,1.71-1.75,3.3-2.87,4.79
				c-1.12,1.48-2.3,2.9-3.54,4.27c-2.61,2.74-4.63,5.16-6.08,7.25c-1.45,2.09-2,4.46-1.67,7.1l0.65,5.15l-13.07,1.64l-0.65-5.15
				c-0.26-2.05-0.22-3.98,0.13-5.8c0.34-1.82,0.9-3.53,1.67-5.14c0.77-1.61,1.7-3.13,2.79-4.57c1.09-1.44,2.26-2.81,3.51-4.11
				c1.19-1.22,2.29-2.43,3.31-3.64c1.02-1.2,1.89-2.42,2.61-3.65c0.72-1.23,1.24-2.5,1.58-3.82c0.34-1.32,0.41-2.73,0.22-4.25
				c-0.46-3.7-1.8-6.44-4-8.25c-2.2-1.8-5.35-2.44-9.44-1.93c-3.43,0.43-6.03,2.13-7.81,5.1c-1.77,2.97-2.39,6.6-1.85,10.89
				l-13.27,1.67c-0.45-3.56-0.24-6.99,0.62-10.28c0.86-3.29,2.25-6.25,4.16-8.87c1.92-2.62,4.29-4.8,7.12-6.53
				c2.83-1.73,6.03-2.82,9.6-3.27c4.42-0.56,8.31-0.42,11.67,0.39c3.35,0.82,6.19,2.14,8.49,3.96c2.31,1.82,4.11,4.06,5.42,6.71
				C175.63,56.03,176.49,58.94,176.89,62.11z M166.04,118.18c0.31,2.44-0.26,4.64-1.68,6.6c-1.43,1.96-3.5,3.11-6.2,3.45
				c-2.71,0.34-4.99-0.26-6.86-1.8c-1.87-1.54-2.96-3.53-3.27-5.98c-0.31-2.44,0.25-4.64,1.68-6.6c1.43-1.96,3.5-3.11,6.2-3.45
				c2.71-0.34,4.99,0.26,6.86,1.8C164.64,113.75,165.73,115.74,166.04,118.18z"/>
		</g>
	</g>
	<g>
		
			<ellipse transform="matrix(0.3907 -0.9205 0.9205 0.3907 -93.1165 335.8392)" class="st1" cx="207.14" cy="238.26" rx="35.42" ry="60.28"/>
	</g>
	<g>
		
			<ellipse transform="matrix(0.8645 -0.5027 0.5027 0.8645 -36.0553 319.4319)" class="st1" cx="574.33" cy="226.58" rx="60.28" ry="35.42"/>
	</g>
	<g>
		<path class="st2" d="M181.24,697.39l-28.14,47.3v28.14h-13.37v-28.14l-28.34-47.3h14.87l19.66,34.12h1l19.66-34.12H181.24z"/>
		<path class="st2" d="M251.68,735.1c0,6.12-0.75,11.57-2.25,16.36c-1.5,4.79-3.64,8.85-6.44,12.17c-2.79,3.33-6.22,5.85-10.28,7.58
			c-4.06,1.73-8.65,2.59-13.77,2.59c-5.12,0-9.71-0.87-13.77-2.59c-4.06-1.73-7.48-4.26-10.28-7.58c-2.79-3.33-4.94-7.38-6.44-12.17
			c-1.5-4.79-2.25-10.24-2.25-16.36c0-6.12,0.75-11.57,2.25-16.36c1.5-4.79,3.64-8.85,6.44-12.17c2.79-3.33,6.22-5.85,10.28-7.58
			c4.06-1.73,8.65-2.59,13.77-2.59c5.12,0,9.71,0.87,13.77,2.59c4.06,1.73,7.48,4.26,10.28,7.58c2.79,3.33,4.94,7.38,6.44,12.17
			C250.93,723.53,251.68,728.99,251.68,735.1z M238.31,735.1c0-4.26-0.42-8.07-1.25-11.43c-0.83-3.36-2.05-6.22-3.64-8.58
			c-1.6-2.36-3.61-4.17-6.04-5.44c-2.43-1.26-5.24-1.9-8.43-1.9c-3.19,0-6,0.63-8.43,1.9c-2.43,1.26-4.44,3.08-6.04,5.44
			c-1.6,2.36-2.81,5.22-3.64,8.58c-0.83,3.36-1.25,7.17-1.25,11.43c0,8.52,1.63,15.2,4.89,20.06c3.26,4.86,8.08,7.28,14.47,7.28
			s11.21-2.43,14.47-7.28C236.68,750.31,238.31,743.62,238.31,735.1z"/>
		<path class="st2" d="M322.53,747.38c0,4.52-0.77,8.45-2.3,11.77c-1.53,3.33-3.61,6.07-6.24,8.23c-2.63,2.16-5.69,3.77-9.18,4.84
			c-3.49,1.06-7.23,1.6-11.23,1.6c-3.99,0-7.73-0.53-11.23-1.6c-3.49-1.07-6.55-2.68-9.18-4.84c-2.63-2.16-4.71-4.9-6.24-8.23
			c-1.53-3.33-2.3-7.25-2.3-11.77v-49.99h13.37v49.99c0,2.59,0.4,4.84,1.2,6.74c0.8,1.9,1.9,3.46,3.29,4.69
			c1.4,1.23,3.04,2.15,4.94,2.74c1.9,0.6,3.94,0.9,6.14,0.9c2.2,0,4.24-0.3,6.14-0.9c1.9-0.6,3.54-1.51,4.94-2.74
			c1.4-1.23,2.49-2.79,3.29-4.69c0.8-1.9,1.2-4.14,1.2-6.74v-49.99h13.37V747.38z"/>
		<path class="st2" d="M432.79,735.1c0,7.58-1.11,14.1-3.34,19.56c-2.23,5.46-5.44,9.78-9.63,12.97c1.86,1.6,3.79,3.33,5.79,5.19
			c2,1.86,4.06,3.96,6.19,6.29l-9.88,7.38c-2.2-2.33-4.33-4.59-6.39-6.78c-2.06-2.2-4.39-4.46-6.98-6.79
			c-2.59,0.6-5.42,0.9-8.48,0.9c-5.12,0-9.71-0.87-13.77-2.59c-4.06-1.73-7.48-4.26-10.28-7.58c-2.79-3.33-4.94-7.38-6.44-12.17
			c-1.5-4.79-2.25-10.24-2.25-16.36c0-6.12,0.75-11.57,2.25-16.36c1.5-4.79,3.64-8.85,6.44-12.17c2.79-3.33,6.22-5.85,10.28-7.58
			c4.06-1.73,8.65-2.59,13.77-2.59c5.12,0,9.71,0.87,13.77,2.59c4.06,1.73,7.48,4.26,10.28,7.58c2.79,3.33,4.94,7.38,6.44,12.17
			C432.04,723.53,432.79,728.99,432.79,735.1z M419.42,735.1c0-4.26-0.42-8.07-1.25-11.43c-0.83-3.36-2.05-6.22-3.64-8.58
			c-1.6-2.36-3.61-4.17-6.04-5.44c-2.43-1.26-5.24-1.9-8.43-1.9s-6,0.63-8.43,1.9c-2.43,1.26-4.44,3.08-6.04,5.44
			c-1.6,2.36-2.81,5.22-3.64,8.58c-0.83,3.36-1.25,7.17-1.25,11.43c0,8.52,1.63,15.2,4.89,20.06c3.26,4.86,8.08,7.28,14.47,7.28
			c6.39,0,11.21-2.43,14.47-7.28C417.78,750.31,419.42,743.62,419.42,735.1z"/>
		<path class="st2" d="M503.63,747.38c0,4.52-0.77,8.45-2.3,11.77c-1.53,3.33-3.61,6.07-6.24,8.23c-2.63,2.16-5.69,3.77-9.18,4.84
			c-3.49,1.06-7.23,1.6-11.23,1.6c-3.99,0-7.73-0.53-11.23-1.6c-3.49-1.07-6.55-2.68-9.18-4.84c-2.63-2.16-4.71-4.9-6.24-8.23
			c-1.53-3.33-2.3-7.25-2.3-11.77v-49.99h13.37v49.99c0,2.59,0.4,4.84,1.2,6.74c0.8,1.9,1.9,3.46,3.29,4.69
			c1.4,1.23,3.04,2.15,4.94,2.74c1.9,0.6,3.94,0.9,6.14,0.9c2.19,0,4.24-0.3,6.14-0.9c1.9-0.6,3.54-1.51,4.94-2.74
			c1.4-1.23,2.49-2.79,3.29-4.69c0.8-1.9,1.2-4.14,1.2-6.74v-49.99h13.37V747.38z"/>
		<path class="st2" d="M534.46,772.82h-13.37v-75.43h13.37V772.82z"/>
		<path class="st2" d="M607.5,772.82h-59.37v-8.48l40.21-55.58h-38.81v-11.38h56.28v8.38l-40.21,55.68h41.91V772.82z"/>
		<path class="st2" d="M664.08,716.55c0,2.2-0.3,4.23-0.9,6.09c-0.6,1.86-1.4,3.59-2.4,5.19c-1,1.6-2.15,3.06-3.44,4.39
			c-1.3,1.33-2.64,2.59-4.04,3.79c-2.93,2.39-5.24,4.54-6.94,6.44c-1.7,1.9-2.54,4.17-2.54,6.84v5.19h-13.17v-5.19
			c0-2.06,0.28-3.97,0.85-5.74c0.56-1.76,1.33-3.39,2.29-4.89c0.96-1.5,2.08-2.89,3.34-4.19c1.26-1.3,2.59-2.51,3.99-3.64
			c1.33-1.06,2.58-2.13,3.74-3.19c1.16-1.06,2.18-2.16,3.04-3.29c0.86-1.13,1.55-2.33,2.05-3.59c0.5-1.26,0.75-2.66,0.75-4.19
			c0-3.72-0.98-6.62-2.94-8.68c-1.96-2.06-5.01-3.09-9.13-3.09c-3.46,0-6.25,1.36-8.38,4.09c-2.13,2.73-3.19,6.25-3.19,10.58h-13.37
			c0-3.59,0.63-6.97,1.9-10.13c1.26-3.16,3.01-5.92,5.24-8.28c2.23-2.36,4.85-4.22,7.88-5.59c3.03-1.36,6.34-2.05,9.93-2.05
			c4.46,0,8.3,0.62,11.53,1.85c3.23,1.23,5.87,2.89,7.93,4.99c2.06,2.1,3.58,4.54,4.54,7.33
			C663.59,710.36,664.08,713.35,664.08,716.55z M646.32,770.83c0,2.46-0.83,4.57-2.49,6.34c-1.66,1.76-3.86,2.64-6.59,2.64
			c-2.73,0-4.92-0.88-6.59-2.64c-1.66-1.76-2.49-3.88-2.49-6.34c0-2.46,0.83-4.57,2.49-6.34c1.66-1.76,3.86-2.64,6.59-2.64
			c2.73,0,4.92,0.88,6.59,2.64C645.48,766.25,646.32,768.36,646.32,770.83z"/>
	</g>
</g>
</svg>
